<svg xmlns="http://www.w3.org/2000/svg" viewBox="0 0 546 539" xmlns:v="https://vecta.io/nano"><path d="M330.5 80.7l-109 305h104.6l-50.5 153.7 137.1-214.1-105.1-.9L434.8 80.7z" fill="#eb2027"/><g fill="#fff"><path d="M401.5 231.5c0 51.5-41.8 93.3-93.3 93.3s-93.3-41.8-93.3-93.3 41.8-93.3 93.3-93.3 93.3 41.8 93.3 93.3z"/><path d="M394.7 168.5C237.7 6 0 13.3 0 13.3v526.1h250.9l8.6-21.4H22V34.7S248.2 41 382.1 183.2c140.8 149.4 137.5 334.9 137.5 334.9h-261l-8 21.4h291c0-.1 12-206.4-146.9-371z"/></g></svg>